<?xml version="1.0" standalone="no"?>
<!DOCTYPE svg PUBLIC "-//W3C//DTD SVG 20010904//EN"
 "http://www.w3.org/TR/2001/REC-SVG-20010904/DTD/svg10.dtd">
<svg version="1.0" xmlns="http://www.w3.org/2000/svg"
 width="5906.000000pt" height="5906.000000pt" viewBox="0 0 5906.000000 5906.000000"
 preserveAspectRatio="xMidYMid meet">

<g transform="translate(0.000000,5906.000000) scale(0.100000,-0.100000)"
fill="#000000" stroke="none">
<path d="M28475 43549 c-874 -65 -1661 -281 -2435 -669 -1679 -841 -2939
-2399 -3401 -4209 -85 -331 -139 -638 -176 -1001 -25 -247 -25 -962 0 -1230
82 -871 269 -1574 601 -2256 360 -739 833 -1343 1461 -1868 997 -832 2336
-1367 3840 -1535 519 -58 264 -55 4138 -58 l3559 -4 -294 149 c-729 369 -1156
660 -1559 1062 -319 318 -537 620 -730 1013 l-72 147 -2221 1 c-1222 0 -2234
2 -2251 4 -16 2 -95 6 -175 9 -492 22 -1028 115 -1440 248 -373 121 -750 309
-1020 509 -273 202 -525 465 -711 740 -273 406 -473 923 -563 1459 -49 287
-60 425 -60 755 -1 314 7 431 45 695 192 1336 927 2522 1939 3130 972 585
2120 616 3340 92 164 -70 210 -95 343 -184 815 -546 1505 -1281 2071 -2207
255 -417 384 -657 866 -1611 689 -1363 949 -1830 1387 -2493 830 -1255 1874
-2364 3187 -3386 l169 -131 1833 0 c1009 0 1834 2 1834 4 0 3 -44 35 -97 72
-903 627 -1882 1410 -2528 2020 -669 633 -1191 1231 -1652 1894 -399 573 -741
1176 -1383 2435 -649 1275 -1076 2041 -1621 2915 -497 797 -747 1132 -1159
1553 -1126 1153 -2570 1818 -4205 1937 -162 11 -698 11 -860 -1z"/>
<path d="M48981 42877 c1 -55 6 -95 13 -99 8 -6 8 -10 0 -15 -8 -6 -12 -60
-13 -168 -1 -88 -3 -184 -5 -212 -4 -42 -1 -55 12 -64 16 -10 16 -10 0 -5 -14
4 -16 -3 -15 -55 1 -32 6 -59 12 -59 7 0 7 -3 0 -8 -16 -11 -17 -42 -3 -60 10
-12 10 -14 1 -8 -8 4 -13 1 -13 -9 0 -9 5 -13 11 -9 7 4 6 -2 -1 -17 -10 -17
-10 -24 -1 -27 6 -2 9 -8 5 -13 -7 -12 7 -11 26 1 12 8 13 11 1 19 -9 6 -10
11 -2 15 6 4 11 13 11 19 0 7 -4 6 -10 -3 -6 -9 -10 -10 -10 -3 0 7 12 24 28
39 15 15 20 23 12 17 -12 -9 -18 -7 -27 13 -6 13 -8 22 -4 19 4 -2 8 14 9 36
1 23 -2 38 -8 34 -5 -3 -6 -13 -3 -23 5 -14 3 -15 -7 -5 -11 10 -11 15 0 28 7
9 19 14 26 11 9 -3 9 2 -1 21 -8 15 -11 31 -8 36 3 5 0 13 -7 17 -7 5 -9 13
-4 21 9 16 16 56 14 84 -1 11 -2 55 -3 97 0 42 -3 75 -7 73 -3 -2 -7 6 -7 18
-2 17 0 19 7 7 10 -16 11 -15 14 43 2 36 -8 50 -17 25 -3 -7 -4 -3 -4 10 1 14
6 21 14 18 15 -6 18 10 3 19 -5 3 -10 14 -10 23 0 13 2 14 9 3 7 -10 8 129 2
170 -1 4 -10 9 -21 12 -20 5 -21 2 -19 -86z m30 9 c-6 -7 -8 -16 -4 -19 3 -4
1 -7 -5 -7 -15 0 -16 17 -2 25 6 4 7 11 4 17 -4 7 -2 8 5 4 8 -6 9 -12 2 -20z
m0 -55 c-6 -10 -7 -22 -3 -26 4 -5 1 -5 -6 -1 -9 5 -9 12 -2 27 6 10 13 19 16
19 2 0 0 -8 -5 -19z m9 -145 c0 -3 -4 -8 -10 -11 -5 -3 -10 -1 -10 4 0 6 5 11
10 11 6 0 10 -2 10 -4z m-10 -152 c0 -8 -4 -12 -10 -9 -5 3 -10 10 -10 16 0 5
5 9 10 9 6 0 10 -7 10 -16z m0 -94 c0 -5 -5 -10 -11 -10 -5 0 -7 5 -4 10 3 6
8 10 11 10 2 0 4 -4 4 -10z m0 -286 c0 -8 -5 -12 -10 -9 -6 4 -8 11 -5 16 9
14 15 11 15 -7z"/>
<path d="M49068 42923 c-2 -5 -3 -63 -3 -130 0 -70 -4 -119 -9 -115 -5 3 -6 0
-2 -7 11 -17 14 -121 5 -127 -8 -4 -6 -17 7 -61 4 -15 1 -22 -13 -26 -17 -4
-17 -5 0 -6 12 -1 15 -5 11 -13 -4 -7 -7 -27 -6 -46 2 -25 -1 -32 -10 -26 -10
6 -10 4 -2 -7 16 -21 17 -132 2 -123 -10 6 -10 4 -2 -7 13 -16 13 -187 1 -207
-5 -7 -4 -18 1 -25 10 -13 8 -139 -3 -156 -3 -6 -2 -11 3 -11 5 0 10 -11 10
-25 0 -14 -5 -22 -11 -18 -6 4 -7 1 -2 -7 9 -15 6 -737 -4 -793 0 -5 -7 -5
-13 -2 -7 4 -6 1 3 -7 13 -11 15 -43 15 -210 -1 -108 -5 -194 -9 -191 -5 3 -5
-3 1 -13 5 -11 8 -64 6 -118 l-3 -99 34 -34 c19 -19 39 -32 45 -28 6 4 9 3 8
-2 -2 -5 53 -65 122 -133 274 -273 454 -527 630 -892 272 -568 405 -1224 387
-1918 -14 -536 -104 -1017 -283 -1525 -207 -583 -563 -1174 -954 -1580 l-38
-40 -1 -99 c0 -70 -4 -102 -13 -108 -9 -5 -10 -11 -3 -15 13 -9 18 -113 7
-113 -5 0 -9 -7 -9 -15 0 -8 4 -15 9 -15 4 0 8 -9 8 -20 0 -11 -6 -20 -12 -20
-9 0 -10 -2 -2 -8 15 -9 14 -532 -1 -532 -6 0 -6 -3 1 -8 10 -7 14 -252 4
-252 -5 0 -4 -33 3 -222 1 -41 -2 -68 -8 -68 -7 0 -7 -3 0 -8 10 -6 12 -28 6
-42 -2 -3 -4 -160 -6 -350 -6 -687 -7 -724 -24 -738 -13 -10 -13 -12 -2 -10
12 3 15 -17 15 -107 1 -63 -3 -113 -9 -117 -6 -5 -5 -8 3 -8 7 0 10 -4 7 -10
-9 -14 -1 -13 39 7 19 9 33 19 31 23 -3 4 6 8 19 8 53 0 518 257 791 436 1327
874 2301 2214 2714 3732 79 288 136 578 176 882 58 452 60 1133 5 1632 -232
2081 -1322 3701 -3130 4653 -115 61 -355 173 -465 218 -80 33 -73 31 -77 22z
m60 -74 c-3 -8 -7 -3 -11 10 -4 17 -3 21 5 13 5 -5 8 -16 6 -23z m5 -105 c7 1
9 1 4 -1 -4 -3 -4 -10 0 -16 11 -18 12 -56 2 -63 -6 -4 -6 -10 1 -19 8 -9 6
-14 -6 -19 -9 -4 -19 -4 -22 -1 -3 3 0 5 6 5 7 0 12 5 12 11 0 5 -4 7 -10 4
-16 -10 -11 7 6 19 15 11 15 15 0 50 -9 21 -16 41 -15 45 0 3 3 1 5 -6 3 -7
11 -11 17 -9z m7 -179 c0 -8 -2 -15 -4 -15 -2 0 -6 7 -10 15 -3 8 -1 15 4 15
6 0 10 -7 10 -15z m0 -150 c-5 -7 -7 -15 -3 -19 4 -4 -1 -4 -12 0 -18 7 -18 6
-6 -9 8 -10 9 -17 3 -17 -20 0 -25 23 -9 35 9 7 15 14 12 17 -3 2 2 5 10 5 10
0 12 -4 5 -12z m-15 -85 c-3 -5 -10 -10 -16 -10 -5 0 -9 5 -9 10 0 6 7 10 16
10 8 0 12 -4 9 -10z m13 -65 c-3 -3 -9 2 -12 12 -6 14 -5 15 5 6 7 -7 10 -15
7 -18z m7 -75 c3 -5 1 -10 -4 -10 -6 0 -11 5 -11 10 0 6 2 10 4 10 3 0 8 -4
11 -10z m-5 -60 c0 -5 -2 -10 -4 -10 -3 0 -8 5 -11 10 -3 6 -1 10 4 10 6 0 11
-4 11 -10z m-3 -122 c2 -30 1 -31 -7 -10 -6 13 -8 28 -4 33 8 14 10 11 11 -23z
m0 -94 c-3 -3 -12 -4 -19 -1 -8 3 -5 6 6 6 11 1 17 -2 13 -5z m-12 -43 c2 -13
-1 -21 -11 -21 -14 0 -20 31 -7 43 9 9 13 4 18 -22z m9 -69 c3 -5 -1 -9 -9 -9
-8 0 -12 4 -9 9 3 4 7 8 9 8 2 0 6 -4 9 -8z m5 -65 c0 -9 -2 -8 -6 1 -2 6 -9
9 -15 6 -5 -3 -2 -14 8 -25 10 -11 12 -19 6 -19 -7 0 -12 5 -12 11 0 5 -4 8
-8 5 -13 -8 -11 28 2 36 13 8 26 1 25 -15z m1 -67 c0 -5 -5 -10 -11 -10 -5 0
-7 5 -4 10 3 6 8 10 11 10 2 0 4 -4 4 -10z m-2 -56 c1 -1 -6 -4 -17 -7 -14 -3
-19 0 -18 14 1 14 4 16 17 6 8 -6 16 -12 18 -13z m-21 -159 c0 -8 -4 -15 -9
-15 -10 0 -11 14 -1 23 9 10 10 9 10 -8z m10 -84 c-1 -11 -6 -17 -14 -14 -10
4 -11 9 -2 19 15 19 18 18 16 -5z m0 -55 c-3 -7 -1 -18 4 -23 5 -5 2 -9 -9 -9
-10 0 -19 8 -19 18 -1 10 2 16 8 13 5 -4 9 -1 9 4 0 6 3 11 6 11 3 0 4 -6 1
-14z m-3 -55 c3 -5 -1 -11 -9 -14 -9 -4 -12 -1 -8 9 6 16 10 17 17 5z m8 -60
c-7 -4 -10 -16 -7 -27 6 -18 6 -18 -5 -1 -9 14 -9 22 1 33 6 8 14 12 18 9 3
-3 0 -10 -7 -14z m1 -117 c-3 -8 -12 -14 -19 -14 -12 0 -12 4 -4 20 7 14 7 20
0 20 -5 0 -10 5 -10 12 0 6 8 4 19 -6 11 -10 17 -24 14 -32z m-13 -28 c0 -2
-7 -6 -15 -10 -8 -3 -15 -1 -15 4 0 6 7 10 15 10 8 0 15 -2 15 -4z m16 -35 c0
-11 -4 -17 -8 -15 -4 3 -8 0 -8 -7 0 -7 -3 -10 -6 -7 -5 5 12 48 19 48 2 0 3
-9 3 -19z m-3 -66 c-4 -21 -7 -22 -19 -10 -16 15 -19 29 -5 20 5 -3 12 -1 16
5 10 16 13 12 8 -15z m-3 -41 c0 -8 -19 -13 -24 -6 -3 5 1 9 9 9 8 0 15 -2 15
-3z m-10 -34 c0 -5 -4 -10 -9 -10 -6 0 -13 5 -16 10 -3 6 1 10 9 10 9 0 16 -4
16 -10z m4 -58 c7 -12 -12 -38 -21 -28 -4 5 -2 11 6 14 11 4 11 6 0 13 -9 6
-10 9 -2 9 6 0 14 -4 17 -8z m-11 -73 c-8 -8 -13 -7 -18 2 -5 8 -4 10 3 5 7
-4 12 -2 12 5 0 7 3 9 7 6 4 -4 2 -12 -4 -18z m12 -39 c-3 -5 -12 -10 -18 -10
-7 0 -6 4 3 10 19 12 23 12 15 0z m4 -47 c2 -2 -3 -3 -11 -3 -9 0 -19 7 -22
16 -6 15 -4 15 11 3 10 -7 20 -15 22 -16z m-25 -63 c-6 -6 -10 -3 -10 10 0 13
4 16 10 10 7 -7 7 -13 0 -20z m20 -49 c4 -5 -3 -7 -14 -4 -23 6 -26 13 -6 13
8 0 17 -4 20 -9z m2 -58 c-3 -4 -6 -1 -6 5 0 7 -7 9 -17 5 -15 -6 -16 -5 -3 9
13 14 16 14 23 1 5 -8 6 -17 3 -20z m-6 -23 c0 -5 -5 -10 -11 -10 -5 0 -7 5
-4 10 3 6 8 10 11 10 2 0 4 -4 4 -10z m2 -27 c-10 -4 -10 -8 -1 -19 10 -12 9
-13 -5 -8 -24 9 -18 35 8 33 6 0 5 -3 -2 -6z m2 -92 c3 -5 -1 -14 -9 -21 -10
-9 -15 -9 -15 -1 0 6 6 11 13 11 8 0 7 4 -3 10 -9 6 -10 10 -3 10 6 0 14 -4
17 -9z m-69 -6160 c3 -5 0 -13 -6 -17 -7 -4 -9 -3 -5 4 3 5 0 13 -6 15 -9 4
-10 6 -1 6 6 1 14 -3 18 -8z m-3 -146 c-5 -31 -22 -44 -22 -18 0 15 17 43 26
43 1 0 -1 -11 -4 -25z m5 -54 c-1 -15 -4 -17 -14 -9 -15 12 -17 22 -3 13 6 -3
10 -1 10 4 0 6 2 11 4 11 3 0 4 -9 3 -19z m13 -56 c11 -13 10 -14 -4 -9 -10 4
-16 1 -16 -7 0 -7 -2 -10 -5 -7 -5 5 4 38 10 38 1 0 8 -7 15 -15z m0 -80 c0
-12 -19 -12 -23 0 -4 9 -1 12 9 8 7 -3 14 -7 14 -8z m-9 -48 c-10 -9 -11 -8
-5 6 3 10 9 15 12 12 3 -3 0 -11 -7 -18z m9 -79 c0 -19 -16 -5 -17 14 -2 18 0
20 7 8 5 -8 10 -18 10 -22z m-16 -66 c3 -5 -1 -9 -9 -9 -8 0 -12 4 -9 9 3 4 7
8 9 8 2 0 6 -4 9 -8z m1 -41 c-8 -14 -25 -14 -25 0 0 5 5 7 10 4 6 -3 10 -1
10 6 0 7 3 10 6 6 3 -3 3 -10 -1 -16z m-1 -27 c13 -5 14 -9 5 -20 -14 -17 -29
-18 -29 -3 0 5 5 7 10 4 6 -3 10 -2 10 4 0 5 -6 12 -12 14 -7 3 -10 6 -6 6 3
1 14 -2 22 -5z m13 -76 c2 -18 0 -20 -7 -8 -12 18 -13 30 -2 30 4 0 9 -10 9
-22z m0 -43 c0 -6 -10 -11 -21 -12 -12 -1 -15 1 -8 4 6 3 10 8 8 12 -3 4 1 8
8 8 7 0 13 -5 13 -12z m-10 -57 c-3 -8 -6 -5 -6 6 -1 11 2 17 5 13 3 -3 4 -12
1 -19z m2 -45 c-11 -13 -11 -17 -1 -20 6 -3 9 -9 6 -14 -3 -6 -12 -2 -19 8
-11 14 -10 19 4 30 22 17 26 16 10 -4z m4 -80 c-7 -2 -19 -2 -25 0 -7 3 -2 5
12 5 14 0 19 -2 13 -5z m-3 -32 c0 -6 -5 -13 -12 -17 -6 -4 -8 -3 -4 4 3 5 0
13 -6 15 -8 3 -6 6 5 6 9 1 17 -3 17 -8z m-14 -69 c-15 -15 -15 -15 -4 10 7
15 15 23 17 17 2 -6 -4 -18 -13 -27z m24 -10 c0 -4 -10 -13 -22 -21 -23 -14
-23 -14 -4 8 20 22 26 25 26 13z m-4 -97 c1 -8 -2 -15 -7 -15 -5 0 -9 10 -9
22 0 23 12 17 16 -7z m-15 -37 c11 -21 11 -22 -4 -9 -10 7 -17 17 -17 22 0 15
9 10 21 -13z m9 -58 c0 -5 -7 -10 -16 -10 -8 0 -12 5 -9 10 3 6 10 10 16 10 5
0 9 -4 9 -10z m-7 -64 c4 -10 1 -13 -9 -9 -7 3 -14 9 -14 14 0 14 17 10 23 -5z
m7 -123 c0 -14 -2 -15 -9 -4 -5 8 -14 10 -21 6 -9 -5 -11 -4 -6 3 11 18 36 14
36 -5z m10 -66 c0 -7 -7 -22 -16 -33 -14 -18 -15 -18 -4 4 6 12 8 22 5 22 -4
0 -3 5 0 10 9 14 15 13 15 -3z m-3 -112 c0 -8 -5 -15 -11 -15 -6 0 -4 -5 4
-10 13 -8 12 -10 -2 -10 -21 0 -22 4 -8 31 13 23 17 24 17 4z m-29 -80 c-3 -3
-9 2 -12 12 -6 14 -5 15 5 6 7 -7 10 -15 7 -18z m12 -130 c0 -12 -19 -12 -23
0 -4 9 -1 12 9 8 7 -3 14 -7 14 -8z m7 -60 c0 -8 -4 -15 -9 -15 -10 0 -11 14
-1 23 9 10 10 9 10 -8z m3 -37 c0 -4 -4 -8 -9 -8 -6 0 -12 4 -15 8 -3 5 1 9 9
9 8 0 15 -4 15 -9z m-1 -39 c3 -11 1 -12 -11 -2 -8 7 -19 9 -23 5 -5 -4 -5 -1
-1 6 9 16 28 11 35 -9z m-21 -54 c-3 -3 -9 2 -12 12 -6 14 -5 15 5 6 7 -7 10
-15 7 -18z m11 -29 c10 -12 8 -13 -8 -9 -12 3 -18 9 -15 14 7 12 10 11 23 -5z
m11 -46 c0 -4 -9 -6 -21 -3 -15 4 -17 8 -8 14 14 8 29 3 29 -11z m-20 -30 c0
-5 -2 -10 -4 -10 -3 0 -8 5 -11 10 -3 6 -1 10 4 10 6 0 11 -4 11 -10z m17
-162 c1 -11 -5 -18 -17 -18 -12 0 -18 7 -17 18 0 10 8 18 17 18 9 0 17 -8 17
-18z m-21 -37 c-3 -5 1 -12 10 -15 9 -4 14 -9 11 -13 -9 -8 -38 17 -31 28 3 5
7 9 10 9 3 0 3 -4 0 -9z m16 -48 c-6 -2 -9 -10 -5 -16 3 -7 3 -9 -2 -5 -4 4
-15 2 -23 -5 -13 -11 -14 -9 -1 11 8 12 21 22 29 21 10 0 11 -2 2 -6z m-26
-58 c-1 -8 -5 -17 -8 -21 -5 -4 -4 16 1 34 3 9 9 -1 7 -13z m32 -142 c1 -16
-4 -23 -16 -23 -14 0 -15 2 -2 10 13 8 12 11 -5 24 -20 15 -20 15 0 13 14 0
22 -9 23 -24z m-8 -43 c0 -5 -2 -10 -4 -10 -3 0 -8 5 -11 10 -3 6 -1 10 4 10
6 0 11 -4 11 -10z m0 -54 c0 -8 -7 -16 -15 -20 -16 -6 -16 14 0 26 14 10 15
10 15 -6z m-10 -60 c-7 -7 -13 -7 -20 0 -6 6 -3 10 10 10 13 0 16 -4 10 -10z
m5 -26 c-3 -5 -10 -10 -16 -10 -5 0 -9 5 -9 10 0 6 7 10 16 10 8 0 12 -4 9
-10z m5 -74 c0 -2 -7 -7 -16 -10 -8 -3 -12 -2 -9 4 6 10 25 14 25 6z m-12 -35
c11 -7 10 -9 -3 -14 -9 -4 -14 -3 -10 2 3 5 -1 12 -7 14 -7 3 -8 6 -3 6 6 0
16 -3 23 -8z"/>
<path d="M49030 42519 c0 -5 5 -7 10 -4 6 3 10 8 10 11 0 2 -4 4 -10 4 -5 0
-10 -5 -10 -11z"/>
<path d="M48988 42033 c-27 -7 -22 -28 7 -31 14 -1 25 3 25 8 0 6 -6 10 -12
10 -9 0 -8 4 2 10 15 10 8 11 -22 3z"/>
<path d="M48977 41993 c-8 -15 -8 -135 0 -130 5 3 15 2 22 -2 9 -6 10 -11 2
-15 -6 -4 -11 -2 -11 4 0 6 -5 8 -10 5 -14 -9 -11 -166 4 -184 8 -12 8 -13 -2
-7 -10 6 -12 -1 -10 -28 1 -20 6 -36 10 -36 4 0 8 -5 8 -11 0 -5 -4 -7 -10 -4
-16 10 -11 -32 6 -49 14 -15 14 -16 -1 -16 -12 0 -15 -9 -13 -35 1 -20 7 -34
13 -31 5 2 9 9 8 15 -4 15 14 14 20 -1 2 -7 4 12 3 42 -1 30 -6 61 -10 69 -6
9 -5 12 1 8 5 -3 10 0 10 8 0 8 -4 12 -9 9 -4 -3 -8 0 -8 5 0 6 5 11 10 11 6
0 10 5 10 11 0 5 -4 8 -9 4 -5 -3 -12 -1 -16 5 -3 5 -1 10 5 10 6 0 8 5 5 10
-3 6 -1 10 4 10 17 0 13 18 -9 40 l-20 20 23 1 c12 1 26 1 32 -1 5 -1 2 7 -8
18 -9 10 -14 22 -10 25 12 13 -13 7 -27 -5 -8 -7 -4 0 10 16 14 16 20 26 13
22 -8 -5 -10 1 -4 21 4 16 6 40 5 56 -2 15 2 27 7 27 5 0 1 12 -8 27 -10 15
-12 24 -5 20 7 -5 12 -3 12 7 0 17 -36 41 -43 29z"/>
<path d="M48980 41440 c-10 -6 -11 -10 -2 -10 6 0 12 -5 12 -11 0 -5 -4 -7
-10 -4 -5 3 -10 -1 -10 -10 0 -13 4 -14 20 -5 11 6 20 7 20 2 0 -6 -9 -12 -19
-15 -16 -4 -19 -14 -20 -61 0 -46 3 -56 17 -57 14 0 14 -2 2 -7 -17 -8 -22
-24 -21 -69 2 -51 2 -55 -2 -100 -2 -23 0 -40 5 -37 4 3 8 0 8 -5 0 -6 -4 -11
-8 -11 -5 0 -9 -29 -8 -65 0 -47 3 -62 11 -55 8 7 12 5 12 -5 0 -7 -5 -13 -11
-12 -7 1 -12 -30 -14 -86 -2 -65 0 -87 9 -82 8 6 8 2 0 -13 -13 -24 -15 -66
-3 -58 4 2 14 0 22 -5 12 -8 11 -9 -5 -7 -19 3 -20 -4 -23 -124 -3 -120 -2
-127 18 -133 11 -4 18 -11 15 -16 -4 -5 -1 -9 5 -9 7 0 9 7 6 15 -3 8 -9 23
-13 32 -5 13 -2 15 13 10 19 -7 19 -7 0 8 -11 8 -15 15 -10 15 13 0 12 263 -1
272 -6 5 -6 8 2 8 6 0 11 13 11 30 -1 17 -5 30 -10 30 -5 0 -6 -5 -2 -12 4 -7
3 -8 -5 -4 -9 6 -9 11 0 23 9 9 13 52 13 124 1 102 0 108 -18 103 -16 -5 -17
-4 -5 9 8 8 17 13 20 11 9 -5 5 89 -4 103 -4 6 -1 16 7 22 16 14 9 54 -8 44
-6 -4 -5 0 2 9 10 13 10 17 0 21 -10 4 -10 6 0 6 6 1 12 12 12 26 0 14 5 25
10 25 6 0 10 4 10 10 0 5 -6 7 -14 4 -17 -6 -29 23 -14 32 7 5 8 2 3 -7 -6
-11 -5 -12 5 -2 11 10 11 15 -1 29 -8 10 -9 15 -2 11 8 -5 10 2 8 25 -3 19 1
35 8 40 8 5 5 8 -8 8 -11 0 -27 -5 -35 -10z m10 -251 c0 -5 5 -7 12 -3 7 4 8
3 4 -5 -6 -9 -11 -9 -22 0 -17 14 -18 19 -4 19 6 0 10 -5 10 -11z m10 -68 c0
-6 -4 -12 -8 -15 -5 -3 -9 1 -9 9 0 8 4 15 9 15 4 0 8 -4 8 -9z m-14 -268
c-10 -10 -19 5 -10 18 6 11 8 11 12 0 2 -7 1 -15 -2 -18z m4 -235 c0 -18 -2
-20 -9 -8 -6 8 -7 18 -5 22 9 14 14 9 14 -14z m7 -104 c-3 -3 -12 -4 -19 -1
-8 3 -5 6 6 6 11 1 17 -2 13 -5z"/>
<path d="M12085 34759 c-322 -47 -552 -212 -684 -490 -53 -111 -87 -233 -109
-388 -15 -113 -17 -233 -17 -1161 0 -1125 1 -1144 56 -1360 98 -380 335 -604
718 -676 112 -21 354 -21 473 0 395 71 658 351 732 776 33 194 38 377 34 1370
-4 859 -7 988 -22 1083 -79 498 -330 769 -780 842 -98 16 -304 18 -401 4z
m331 -728 c83 -37 119 -129 135 -350 7 -94 9 -473 6 -1066 -4 -989 -5 -1008
-57 -1118 -40 -86 -99 -117 -220 -117 -170 0 -231 65 -262 277 -17 120 -18
1977 0 2103 27 199 75 269 202 294 45 8 153 -5 196 -23z"/>
<path d="M6835 34708 c-3 -13 -41 -214 -85 -448 -44 -234 -100 -531 -125 -660
-24 -129 -76 -404 -115 -610 -39 -206 -82 -431 -95 -500 -13 -69 -42 -224 -65
-345 -22 -121 -52 -276 -65 -345 -13 -69 -45 -235 -70 -370 -26 -135 -66 -350
-91 -477 -24 -128 -44 -236 -44 -240 0 -5 168 -7 372 -6 l373 3 47 272 c26
150 58 332 70 403 l23 130 290 0 289 0 70 -402 70 -403 373 -2 c287 -2 373 0
373 9 0 7 -27 155 -60 330 -33 175 -81 426 -106 558 -25 132 -58 308 -74 390
-16 83 -48 249 -70 370 -23 121 -52 276 -65 345 -13 69 -72 377 -130 685 -58
308 -121 641 -140 740 -19 99 -51 268 -71 375 -20 107 -38 201 -40 208 -3 9
-95 12 -418 12 l-416 0 -5 -22z m449 -1709 c14 -74 48 -267 76 -429 28 -162
53 -307 56 -322 l6 -28 -167 0 -168 0 7 38 c3 20 26 152 51 292 25 140 57 325
71 410 27 164 32 186 39 178 3 -3 16 -65 29 -139z"/>
<path d="M8850 32721 l0 -2011 365 -2 365 -3 0 696 0 696 193 6 c284 9 408 33
562 107 201 97 317 235 396 469 56 165 64 259 64 746 -1 478 -6 544 -60 708
-49 150 -112 255 -213 354 -106 105 -232 169 -422 215 -80 20 -121 21 -667 25
l-583 4 0 -2010z m1105 1264 c99 -50 108 -103 103 -615 l-3 -395 -30 -60 c-43
-85 -77 -97 -285 -99 l-155 -1 -3 598 -2 598 167 -3 c144 -3 174 -6 208 -23z"/>
<path d="M16103 34723 l-123 -4 0 -2004 0 -2005 890 0 890 0 0 355 0 355 -525
0 -525 0 0 495 0 495 440 0 440 0 0 355 0 355 -440 0 -440 0 0 445 0 445 525
0 525 0 0 360 0 360 -767 -2 c-423 -1 -823 -4 -890 -5z"/>
<path d="M18280 32718 l0 -2013 362 0 363 0 5 825 5 825 33 -70 c19 -38 51
-110 73 -160 21 -49 169 -387 328 -750 l289 -660 396 -5 c218 -3 396 -2 396 1
0 4 -66 162 -146 350 -80 189 -222 522 -314 739 -92 217 -221 519 -285 671
l-117 277 242 603 c133 332 311 776 396 987 85 210 154 383 154 385 0 1 -178
0 -396 -3 l-396 -5 -128 -310 c-70 -170 -214 -521 -320 -780 -106 -258 -196
-474 -201 -480 -5 -5 -9 333 -9 788 l0 797 -365 0 -365 0 0 -2012z"/>
<path d="M13530 34365 l0 -355 325 0 325 0 0 -1650 0 -1650 365 -2 365 -3 0
1652 0 1653 325 2 326 3 2 353 2 352 -1017 0 -1018 0 0 -355z"/>
<path d="M48933 34138 c-25 -33 -39 -103 -19 -95 7 3 13 -1 13 -9 0 -7 -4 -11
-9 -8 -9 6 -11 -2 -13 -66 0 -25 4 -48 9 -52 13 -9 16 -37 6 -43 -5 -3 -7 4
-5 15 2 11 0 18 -6 15 -16 -11 -10 -50 11 -65 11 -8 20 -19 20 -24 0 -5 -8 -2
-18 7 -18 16 -19 14 -19 -48 l-1 -66 25 27 c15 17 23 34 19 46 -2 11 0 31 6
44 8 17 8 27 0 37 -9 10 -8 17 0 25 9 9 9 12 -2 12 -11 1 -9 5 5 16 17 13 18
16 5 24 -8 5 -11 10 -7 10 4 0 3 8 -2 18 -7 13 -7 22 1 30 8 8 7 16 -3 28 -9
12 -10 15 -1 10 6 -4 12 -2 12 3 0 6 -5 11 -11 11 -6 0 -7 5 -2 13 14 22 12
41 -5 61 -9 11 -12 16 -6 13 7 -4 14 0 18 8 7 18 -8 20 -21 3z m8 -65 c13 -16
12 -17 -3 -4 -10 7 -18 15 -18 17 0 8 8 3 21 -13z m-11 -297 c0 -3 -4 -8 -10
-11 -5 -3 -10 -1 -10 4 0 6 5 11 10 11 6 0 10 -2 10 -4z"/>
<path d="M48917 33702 c-14 -16 -16 -53 -15 -304 0 -158 3 -286 7 -285 3 1 6
-2 6 -8 0 -5 -3 -9 -7 -8 -5 2 -8 -40 -7 -92 0 -55 5 -95 10 -95 6 0 7 5 4 10
-3 6 -1 10 4 10 16 0 13 -20 -4 -26 -20 -8 -19 -23 3 -47 16 -19 16 -20 -4 -9
-20 11 -21 9 -20 -52 1 -35 4 -62 7 -60 4 2 12 -3 20 -12 10 -13 9 -16 -10
-21 -22 -6 -24 -30 -2 -25 7 1 10 -2 6 -8 -3 -6 -11 -8 -16 -5 -5 4 -9 -10 -9
-29 0 -20 4 -36 9 -36 5 0 16 -2 24 -5 8 -4 14 0 14 9 0 8 -8 13 -19 11 -10
-2 -16 0 -13 6 4 5 10 7 15 4 4 -3 13 2 19 9 8 10 9 16 1 21 -6 3 -8 11 -4 16
3 5 10 6 16 3 7 -4 8 -2 4 5 -4 6 -11 9 -16 6 -5 -3 -5 8 0 25 5 16 7 31 4 31
-2 1 -9 2 -16 3 -18 2 -21 26 -3 26 9 0 13 5 10 10 -3 6 -2 10 4 10 6 0 8 7 5
15 -4 8 -10 13 -14 10 -5 -3 -12 0 -16 6 -4 7 -3 9 4 5 6 -3 14 3 17 15 5 14
2 25 -6 30 -8 5 -9 9 -3 9 6 0 11 14 12 30 0 17 -4 30 -10 30 -7 0 -7 4 0 13
5 6 10 41 10 77 0 36 2 99 5 140 3 41 2 67 -2 58 -6 -17 -7 -17 -18 1 -10 15
-9 18 5 17 12 -1 16 9 17 41 0 23 -3 39 -7 36 -5 -2 -6 -8 -3 -13 3 -4 -2 -10
-10 -14 -19 -7 -15 14 7 35 10 9 15 19 11 22 -3 4 0 13 6 21 9 10 9 16 1 21
-6 4 -9 13 -6 21 3 7 0 16 -6 20 -7 5 -8 2 -3 -6 6 -9 4 -11 -5 -5 -10 6 -11
2 -6 -19 3 -14 3 -26 -2 -26 -15 0 -11 44 6 63 12 14 17 37 17 86 0 62 -2 68
-20 64 -11 -2 -15 -1 -8 3 7 3 9 13 6 22 -6 14 -4 15 9 5 13 -11 15 -6 14 42
-1 60 -4 64 -29 37z m13 -26 c0 -3 -4 -8 -10 -11 -5 -3 -10 -1 -10 4 0 6 5 11
10 11 6 0 10 -2 10 -4z m-4 -621 c1 -8 -1 -17 -5 -19 -4 -3 -7 6 -7 19 0 25 8
25 12 0z m4 -80 c0 -8 -4 -15 -10 -15 -5 0 -7 7 -4 15 4 8 8 15 10 15 2 0 4
-7 4 -15z"/>
<path d="M48961 33354 c0 -11 3 -14 6 -6 3 7 2 16 -1 19 -3 4 -6 -2 -5 -13z"/>
<path d="M48898 32713 c7 -3 16 -2 19 1 4 3 -2 6 -13 5 -11 0 -14 -3 -6 -6z"/>
<path d="M48890 32556 c0 -14 5 -28 10 -31 6 -3 10 -12 10 -18 0 -7 -4 -6 -10
3 -6 10 -9 2 -8 -28 0 -23 4 -39 9 -36 5 3 9 0 9 -5 0 -6 -4 -11 -9 -11 -5 0
-8 -54 -8 -120 1 -99 4 -120 16 -123 13 -4 12 -5 -1 -6 -12 -1 -18 -9 -18 -27
0 -14 4 -23 8 -20 4 2 8 -4 8 -14 0 -10 -3 -17 -7 -14 -4 2 -7 -38 -7 -91 0
-88 1 -94 18 -85 9 5 20 6 24 3 3 -3 6 8 6 25 0 23 -4 30 -14 26 -8 -3 -17 0
-21 6 -4 7 -1 10 10 8 25 -4 30 18 6 25 -21 5 -22 30 -3 49 9 9 11 6 7 -10 -2
-12 0 -24 6 -27 5 -4 9 17 9 49 0 46 -3 56 -20 61 -21 7 -28 25 -10 25 6 0 10
-4 10 -10 0 -5 4 -10 9 -10 5 0 8 29 8 64 -1 42 -4 63 -11 60 -6 -3 -4 0 5 8
9 7 14 19 11 26 -3 10 -8 9 -23 -4 -11 -10 -19 -12 -19 -6 0 7 5 12 11 12 5 0
7 5 4 10 -3 6 1 10 9 10 10 0 16 9 16 25 0 19 -5 25 -22 25 -18 0 -20 2 -8 9
8 6 18 7 22 5 12 -8 10 20 -3 33 -8 8 -7 13 2 18 8 5 10 4 5 -3 -5 -8 -2 -10
8 -6 9 3 16 10 16 16 0 5 -4 6 -10 3 -5 -3 -10 -2 -10 4 0 6 -7 8 -15 5 -8 -4
-15 -1 -15 5 0 6 5 10 12 9 20 -5 21 33 1 48 -16 13 -16 13 0 8 13 -5 17 -1
17 20 0 21 -5 26 -25 26 -20 0 -25 -5 -25 -24z m39 -209 c0 -9 -2 -8 -6 1 -2
6 -10 9 -15 6 -7 -4 -8 -2 -4 5 9 13 26 5 25 -12z m1 -94 c0 -5 -5 -15 -10
-23 -7 -12 -9 -10 -7 8 1 19 17 33 17 15z"/>
<path d="M48896 31898 c-3 -13 -4 -30 -4 -38 1 -9 -2 -28 -6 -44 -5 -20 -4
-26 5 -20 8 5 9 3 4 -7 -13 -20 -6 -123 9 -148 4 -6 0 -14 -9 -17 -13 -5 -13
-9 -3 -22 10 -12 10 -14 1 -8 -8 4 -13 2 -13 -4 0 -7 7 -9 16 -6 9 3 21 6 28
6 15 0 10 108 -6 127 -9 11 -8 13 2 11 8 -2 16 5 18 16 3 13 0 16 -9 11 -8 -5
-10 -4 -5 4 4 6 10 45 12 86 5 70 4 75 -15 75 -13 0 -22 -8 -25 -22z m29 -98
c3 -5 1 -10 -4 -10 -6 0 -11 5 -11 10 0 6 2 10 4 10 3 0 8 -4 11 -10z m-5
-145 c14 -19 14 -19 -2 -6 -10 7 -18 18 -18 24 0 6 1 8 3 6 1 -2 9 -13 17 -24z"/>
<path d="M48880 31640 c0 -5 5 -10 11 -10 5 0 7 5 4 10 -3 6 -8 10 -11 10 -2
0 -4 -4 -4 -10z"/>
<path d="M48900 31568 l-25 -10 23 -9 c13 -5 21 -13 17 -18 -3 -6 -12 -8 -21
-4 -16 6 -16 -17 1 -29 6 -5 6 -8 -1 -8 -7 0 -12 -21 -13 -51 0 -42 2 -50 15
-45 10 4 14 1 11 -6 -2 -7 -10 -12 -16 -10 -12 2 -15 -24 -3 -32 32 -20 56 86
25 110 -14 11 -14 13 -2 9 13 -5 15 4 16 55 0 33 0 60 -1 59 0 0 -12 -5 -26
-11z"/>
<path d="M48900 31337 c-20 -16 -27 -52 -8 -41 10 6 10 4 -1 -9 -8 -10 -11
-20 -7 -24 3 -3 6 -1 6 6 0 7 4 10 8 7 4 -2 14 -1 21 4 17 10 6 44 -11 35 -7
-4 -5 0 5 8 18 15 22 27 10 27 -5 0 -15 -6 -23 -13z"/>
<path d="M6125 27288 c-2 -13 -29 -243 -60 -513 -30 -269 -91 -807 -135 -1195
-44 -388 -96 -842 -115 -1010 -40 -358 -113 -999 -225 -1980 -44 -388 -89
-784 -100 -880 -11 -96 -56 -492 -100 -880 -44 -388 -107 -941 -140 -1230 -33
-289 -76 -664 -95 -833 -19 -170 -35 -313 -35 -318 0 -6 228 -8 597 -7 l598 3
142 1190 c78 655 142 1196 143 1203 0 10 97 12 467 10 l468 -3 12 -115 c7 -63
35 -338 63 -610 28 -272 57 -556 65 -630 8 -74 35 -335 60 -580 25 -245 48
-451 50 -457 3 -10 145 -13 663 -13 362 0 661 2 663 5 3 2 -1 55 -8 117 -12
109 -112 985 -193 1698 -22 190 -71 624 -110 965 -39 341 -109 955 -155 1365
-47 410 -121 1062 -165 1450 -44 388 -107 941 -140 1230 -33 289 -78 683 -99
875 -115 1005 -131 1148 -131 1156 0 5 -441 9 -990 9 l-990 0 -5 -22z m1019
-1695 c4 -54 20 -278 37 -498 16 -220 38 -521 49 -670 94 -1276 152 -2050 165
-2210 8 -104 15 -193 15 -197 0 -5 -154 -8 -341 -8 l-342 0 7 83 c7 95 167
1913 196 2242 11 121 40 456 65 745 25 289 48 544 51 568 l5 42 43 0 43 0 7
-97z"/>
<path d="M10360 23526 c0 -2529 3 -3826 10 -3912 61 -749 518 -1198 1346
-1321 148 -21 559 -24 704 -4 437 60 777 208 1010 441 178 179 285 383 352
675 l23 100 2 3903 3 3902 -660 0 -660 0 0 -3792 c-1 -4113 2 -3880 -55 -4005
-64 -141 -174 -192 -383 -180 -209 11 -298 87 -350 295 -15 62 -17 363 -19
3875 l-3 3807 -660 0 -660 0 0 -3784z"/>
<path d="M15372 22878 l3 -4433 1498 -3 1497 -2 0 580 0 580 -837 2 -838 3 -3
3853 -2 3852 -660 0 -660 0 2 -4432z"/>
<path d="M19650 22875 l0 -4435 658 2 657 3 3 4433 2 4432 -660 0 -660 0 0
-4435z"/>
<path d="M23255 27268 c-3 -24 -17 -142 -30 -263 -14 -121 -61 -537 -105 -925
-44 -388 -119 -1040 -165 -1450 -47 -410 -121 -1062 -165 -1450 -44 -388 -107
-941 -140 -1230 -33 -289 -77 -682 -99 -875 -22 -192 -70 -611 -106 -930 -172
-1506 -192 -1690 -188 -1697 2 -5 270 -8 594 -8 463 0 591 3 594 13 2 6 43
338 90 737 95 802 145 1222 175 1468 11 90 20 170 20 178 0 12 67 14 470 14
441 0 470 -1 470 -17 0 -10 18 -187 40 -393 21 -206 75 -735 120 -1175 45
-440 84 -806 86 -812 3 -10 144 -13 663 -13 363 0 662 3 664 8 2 4 -4 77 -14
162 -29 256 -143 1253 -265 2325 -63 556 -139 1226 -169 1490 -99 867 -135
1184 -190 1670 -30 264 -91 797 -135 1185 -44 388 -112 984 -150 1325 -39 341
-73 639 -76 663 l-6 42 -989 0 -988 0 -6 -42z m1015 -1585 c0 -5 14 -190 30
-413 17 -223 60 -799 95 -1280 36 -481 83 -1115 105 -1409 22 -294 40 -543 40
-553 0 -17 -18 -18 -340 -18 -317 0 -340 1 -340 18 0 9 11 143 25 297 26 301
100 1145 140 1600 37 415 90 1024 125 1414 16 190 30 346 30 348 0 2 20 3 45
3 25 0 45 -3 45 -7z"/>
<path d="M29602 22878 l3 -4433 655 0 655 0 3 2138 2 2137 790 0 790 0 0 575
0 575 -790 0 -790 0 0 1140 0 1140 820 0 820 0 0 580 0 580 -1480 0 -1480 0 2
-4432z"/>
<path d="M34072 26848 c-29 -255 -86 -758 -127 -1118 -41 -360 -86 -754 -100
-875 -14 -121 -61 -537 -105 -925 -44 -388 -107 -943 -140 -1235 -33 -291 -65
-566 -70 -610 -6 -44 -46 -399 -90 -790 -44 -390 -109 -964 -145 -1275 -35
-311 -85 -745 -110 -965 -24 -220 -49 -436 -55 -479 -5 -44 -10 -92 -10 -107
l0 -28 592 3 593 4 7 38 c4 22 39 307 78 634 38 327 86 728 105 890 20 162 49
412 66 555 16 143 32 266 34 273 3 9 106 12 469 12 l465 0 5 -32 c6 -37 14
-109 121 -1158 91 -889 125 -1202 130 -1209 1 -3 301 -5 665 -3 l662 2 -6 43
c-3 23 -44 380 -91 792 -47 413 -110 966 -140 1230 -30 264 -73 640 -95 835
-22 195 -65 571 -95 835 -30 264 -93 818 -140 1230 -47 413 -94 829 -105 925
-11 96 -49 434 -85 750 -167 1464 -226 1982 -236 2075 -5 55 -12 110 -15 123
l-4 22 -988 0 -988 0 -52 -462z m1062 -1180 c3 -13 7 -61 10 -108 3 -47 35
-479 71 -960 35 -481 92 -1242 125 -1690 32 -448 62 -834 65 -857 l5 -43 -346
0 -346 0 6 53 c3 28 15 158 26 287 11 129 32 361 45 515 78 886 109 1243 150
1710 25 286 54 617 65 735 10 118 22 252 26 298 l7 82 43 0 c37 0 44 -3 48
-22z"/>
<path d="M38360 22881 l0 -4431 660 0 660 0 0 2057 0 2056 139 -6 c177 -8 275
-28 377 -77 137 -66 216 -170 267 -348 22 -77 22 -81 23 -1097 1 -1175 12
-1490 70 -1990 23 -198 66 -468 91 -572 l5 -23 657 0 657 0 -32 223 c-73 506
-105 958 -124 1742 -38 1619 -44 1748 -95 1943 -118 448 -464 699 -1104 801
-78 13 -106 21 -106 32 0 10 19 16 70 22 182 20 453 91 601 157 352 158 537
409 611 825 13 75 16 216 20 865 5 836 0 979 -42 1186 -112 553 -441 878
-1016 1003 -249 54 -258 54 -1361 58 l-1028 4 0 -4430z m1827 3354 c131 -30
229 -110 275 -223 l23 -57 0 -960 c0 -904 -1 -964 -18 -1020 -43 -140 -110
-224 -222 -279 -90 -44 -169 -56 -377 -56 l-188 0 0 1303 c0 717 2 1306 5
1309 12 12 439 -2 502 -17z"/>
<path d="M43430 22880 l0 -4430 580 0 580 0 0 2733 c0 2437 -5 3145 -25 3662
-3 83 -10 260 -15 395 -6 135 -10 289 -10 343 0 96 0 97 24 97 20 0 25 -6 30
-37 11 -73 79 -718 166 -1568 93 -916 100 -975 410 -3775 93 -844 178 -1606
187 -1692 l17 -158 603 0 c332 0 603 4 603 8 0 5 9 80 20 168 11 87 49 404 85
704 36 300 81 674 100 833 42 342 94 780 135 1117 16 135 50 413 75 619 44
367 65 572 126 1231 101 1106 174 1889 204 2190 19 190 35 348 35 352 0 5 14
8 31 8 l31 0 -6 -107 c-9 -154 -25 -806 -36 -1453 -5 -305 -10 -1706 -10
-3112 l0 -2558 575 0 575 0 0 4430 0 4430 -975 0 c-536 0 -975 -2 -975 -5 0
-6 -87 -899 -135 -1380 -39 -392 -75 -764 -135 -1375 -23 -228 -54 -547 -70
-708 -65 -640 -79 -921 -131 -2582 -6 -195 -12 -361 -14 -367 -3 -7 -18 -13
-35 -13 -30 0 -30 1 -30 53 0 98 -20 592 -35 862 -32 562 -80 1074 -170 1795
-19 151 -66 552 -105 890 -39 338 -86 748 -105 910 -37 319 -150 1299 -190
1655 -14 121 -28 230 -30 243 l-5 22 -975 0 -975 0 0 -4430z"/>
<path d="M50880 27301 c0 -10 -30 -275 -100 -891 -22 -195 -67 -591 -100 -880
-33 -289 -96 -842 -140 -1230 -44 -388 -90 -786 -101 -885 -11 -99 -30 -274
-44 -390 -13 -115 -40 -349 -59 -520 -20 -170 -65 -569 -101 -885 -36 -316
-83 -735 -106 -930 -22 -195 -51 -449 -64 -565 -14 -115 -58 -511 -100 -880
-42 -368 -79 -698 -84 -732 l-8 -63 599 0 598 0 0 26 c0 15 18 178 40 363 22
185 56 469 75 631 20 162 49 405 65 540 16 135 43 362 60 505 17 143 33 277
36 298 l6 37 468 0 468 0 6 -42 c3 -24 26 -243 51 -488 25 -245 56 -551 70
-680 13 -129 45 -435 70 -680 25 -245 48 -460 51 -477 l5 -33 659 0 c648 0
660 0 660 20 0 20 -31 298 -75 680 -14 118 -54 474 -90 790 -36 316 -76 672
-90 790 -14 118 -36 316 -50 440 -31 275 -71 631 -125 1100 -22 195 -54 472
-70 615 -32 283 -59 522 -175 1535 -77 684 -159 1404 -220 1940 -19 168 -51
444 -70 614 -19 170 -35 315 -35 322 0 12 -157 14 -990 14 -596 0 -990 -4
-990 -9z m1007 -1613 c3 -6 19 -182 34 -392 16 -210 42 -563 58 -786 59 -796
142 -1910 164 -2203 12 -164 20 -300 18 -303 -2 -2 -157 -4 -343 -4 l-338 0 0
43 c0 23 7 116 15 207 14 152 67 754 115 1300 11 124 40 457 65 740 25 283 57
646 70 805 39 445 52 582 59 593 8 13 74 13 83 0z"/>
</g>
</svg>
